
        <svg xmlns="http://www.w3.org/2000/svg" xmlns:xlink="http://www.w3.org/1999/xlink" version="1.1" width="3193.548387096774" height="1650.5523346868472" viewBox="0 0 3193.548387096774 1650.5523346868472">
			
			<g transform="scale(9.67741935483871) translate(10, 10)">
				<defs id="SvgjsDefs4670"><linearGradient id="SvgjsLinearGradient4675"><stop id="SvgjsStop4676" stop-color="#945f50" offset="0"/><stop id="SvgjsStop4677" stop-color="#fcc5b3" offset="0.5"/><stop id="SvgjsStop4678" stop-color="#945f50" offset="1"/></linearGradient><linearGradient id="SvgjsLinearGradient4679"><stop id="SvgjsStop4680" stop-color="#8f5e25" offset="0"/><stop id="SvgjsStop4681" stop-color="#fbf4a1" offset="0.5"/><stop id="SvgjsStop4682" stop-color="#8f5e25" offset="1"/></linearGradient></defs><g id="SvgjsG4671" featureKey="symbolFeature-0" transform="matrix(13.39285659790039,0,0,13.39285659790039,98.99999680689407,0)" fill="#fff"><defs xmlns="http://www.w3.org/2000/svg"/><g xmlns="http://www.w3.org/2000/svg"><path class="fil0" d="M3.6814 3.9787c-2.7943,-2.0689 -0.6017,-2.1466 -0.217,-3.9787 1.5218,0.9545 1.5183,2.4274 0.5261,3.7817 -0.0216,-2.313 -0.0404,-1.0659 -0.3091,0.197zm0.3945 -0.4655c1.3316,-1.9427 -0.2422,-3.1586 -0.5532,-3.3721 -0.3524,1.3668 -2.3737,1.8212 0.1015,3.6861 0.2628,-1.2323 0.4342,-2.8969 0.4517,-0.314zm-2.4369 3.1455c-0.2364,-0.7218 0.0375,-1.1539 0.7713,-1.2732 -0.1469,0.1837 -0.6724,0.6955 -0.2171,0.1299 -0.6507,0.1749 -0.5539,0.8028 -0.5063,0.9991 0.4796,-0.3429 0.8097,-0.1251 0.7625,-0.955 -1.0744,0.8025 -0.427,0.2114 0.0721,-0.163 0.119,1.0705 -0.2476,0.7869 -0.8825,1.2622zm-0.9357 -4.1988c0.678,-0.4697 1.2241,-0.3305 1.5827,0.4009 -0.2309,-0.0946 -0.8994,-0.444 -0.1858,-0.1687 -0.4005,-0.6641 -1.0565,-0.3408 -1.2448,-0.2285 0.5278,0.4033 0.3993,0.8304 1.2775,0.5037 -1.0696,-0.7875 -0.3549,-0.3716 0.176,0.0214 -1.0659,0.4642 -0.9145,-0.0221 -1.6056,-0.5288zm4.2532 2.91c0.0875,1.3029 0.5581,0.8938 1.3669,1.3263 0.032,-0.2694 0.0874,-1.3403 -1.0367,-1.4347 0.7532,0.7222 0.065,0.1779 -0.2302,-0.0962 1.0552,0.0237 1.5104,0.6342 1.3341,1.6675 -0.9906,-0.5474 -1.4813,-0.0821 -1.5275,-1.6132 0.8153,0.439 1.5093,0.928 0.0934,0.1503zm1.1364 -5.0412c0.4091,0.9503 0.1131,1.6631 -0.9115,1.9311 0.2287,-0.3428 0.7196,-0.9484 0.202,-0.147 1.0717,-0.3524 0.7693,-1.3817 0.676,-1.6357 -0.6905,0.6111 -1.2362,0.3361 -1.0226,1.6067 1.222,-1.1073 0.634,-0.4579 -0.0556,0.1685 -0.3164,-1.4909 0.2343,-1.1241 1.1117,-1.9236zm-2.3672 3.9252c-1.6994,1.1484 -0.5466,2.19 -0.3248,3.672 0.327,-0.1967 1.9658,-1.3144 0.756,-3.332 -0.1832,2.5362 -0.2451,0.8996 -0.4312,-0.34zm0.0663 -0.1481c0.2104,1.4202 0.1389,2.5976 0.2958,0.2147 0.9067,1.4107 0.8237,2.8857 -0.7549,3.7435 -0.2474,-1.6803 -1.4661,-2.7052 0.4591,-3.9582zm-3.792 0.7725c0.6293,-1.4318 1.7815,-1.8905 3.1366,-1.0366 -1.9776,0.3299 -0.9276,0.181 0.2341,0.279 -1.3402,1.9359 -1.5965,0.9009 -3.3707,0.7576zm3.211 -0.6831c-1.0851,-0.0899 -2.4499,-0.0269 -0.3178,-0.4009 -1.6955,-0.9836 -2.6026,0.6757 -2.7626,1.0069 1.4913,0.1317 1.8092,1.1046 3.0804,-0.606zm1.1596 0.0622c1.5992,1.9496 3.0123,-1.0722 3.8573,-1.7962 -1.8241,-0.1643 -2.5085,-0.6451 -3.7389,1.2302 2.2822,-1.0835 0.842,-0.1914 -0.1184,0.566zm-0.1223 -0.0147c1.171,-0.9325 2.0919,-1.3613 0.0008,-0.3382 1.4148,-2.2342 1.9023,-1.6974 4.1979,-1.513 -1.0589,0.8816 -2.5493,4.0057 -4.1987,1.8512z" style="fill: url(#SvgjsLinearGradient4675); fill-rule: nonzero;"/></g></g><g id="SvgjsG4672" featureKey="nameFeature-0" transform="matrix(0.7832317352294922,0,0,0.7832317352294922,-0.751902859617575,118.91451168801068)" fill="#fff"><path d="M8.6 40.4 c-3.56 0 -6.2 -2.12 -7.64 -3.92 l1.96 -1.84 c1.16 1.48 3.12 3.12 5.68 3.12 c3.24 0 5.44 -2.12 5.44 -6.6 l0 -19.16 l2.76 0 l0 19.52 c0 5.6 -3.08 8.88 -8.2 8.88 z M47.372 40 l-2.72 -6.32 l-13.56 0 l-2.72 6.32 l-3 0 l12.32 -28.4 l0.36 0 l12.32 28.4 l-3 0 z M32.212 31.08 l11.32 0 l-5.68 -13.16 z M69.424 12 c6.56 0 9.6 5 9.6 10.16 c0 5.12 -3.04 10.12 -9.6 10.12 l-7.4 0 l0 7.72 l-2.8 0 l0 -28 l10.2 0 z M69.26400000000001 29.64 c4.56 0 6.92 -3.52 6.92 -7.48 c0 -4 -2.36 -7.52 -6.92 -7.52 l-7.24 0 l0 15 l7.24 0 z M108.71600000000001 40 l-2.72 -6.32 l-13.56 0 l-2.72 6.32 l-3 0 l12.32 -28.4 l0.36 0 l12.32 28.4 l-3 0 z M93.55600000000001 31.08 l11.32 0 l-5.68 -13.16 z M140.288 12 l2.76 0 l0 28.4 l-0.36 0 l-19.36 -21.8 l0 21.4 l-2.76 0 l0 -28.4 l0.36 0 l19.36 21.8 l0 -21.4 z M171.912 26 c0 -8.08 6.36 -14.4 14.36 -14.4 c3.36 0 6.64 1.16 9.4 3.32 l-1.4 2.16 c-2.36 -1.88 -5.08 -2.88 -8 -2.88 c-6.48 0 -11.6 5.24 -11.6 11.8 s5.16 11.8 11.6 11.8 c3.08 0 5.88 -1.08 8 -3.04 l1.44 2.16 c-2.52 2.2 -5.92 3.48 -9.44 3.48 c-8 0 -14.36 -6.36 -14.36 -14.4 z M222.524 37.36 l0.2 2.64 l-16.96 0 l0 -28 l16.16 0 l0.2 2.64 l-13.56 0 l0 7.84 l9.48 0 l0 2.64 l-9.48 0 l0 12.24 l13.96 0 z M252.73600000000002 22.04 c0 4.44 -2.28 8.56 -7 9.68 l6.36 8.28 l-3.4 0 l-6.12 -7.96 l-7 0 l0 7.96 l-2.8 0 l0 -28 l10.2 0 c6.6 0 9.76 4.76 9.76 10.04 z M235.57600000000002 14.600000000000001 l0 14.84 l7.24 0 c5.04 0 7.16 -3.8 7.16 -7.4 s-2.12 -7.44 -7.16 -7.44 l-7.24 0 z M282.42800000000005 40 l-2.72 -6.32 l-13.56 0 l-2.72 6.32 l-3 0 l12.32 -28.4 l0.36 0 l12.32 28.4 l-3 0 z M267.26800000000003 31.08 l11.32 0 l-5.68 -13.16 z M321.08000000000004 11.600000000000001 l0.4 0 l0 28.4 l-2.76 0 l0 -20.84 l-10.72 14.68 l-0.24 0 l-10.72 -14.6 l0 20.76 l-2.76 0 l0 -28.4 l0.36 0 l13.24 17.8 z M333.13200000000006 40 l0 -28 l2.8 0 l0 28 l-2.8 0 z M346.46400000000006 26 c0 -8.08 6.36 -14.4 14.36 -14.4 c3.36 0 6.64 1.16 9.4 3.32 l-1.4 2.16 c-2.36 -1.88 -5.08 -2.88 -8 -2.88 c-6.48 0 -11.6 5.24 -11.6 11.8 s5.16 11.8 11.6 11.8 c3.08 0 5.88 -1.08 8 -3.04 l1.44 2.16 c-2.52 2.2 -5.92 3.48 -9.44 3.48 c-8 0 -14.36 -6.36 -14.36 -14.4 z M378.796 37.04 c1.88 1.76 5.4 3.36 8.92 3.36 c5.4 0 9.04 -2.92 9.04 -7.28 c0 -3.52 -1.56 -5.52 -8.12 -9.16 c-4.92 -2.72 -6.16 -3.72 -6.16 -5.76 c0 -2.2 2.16 -3.96 5.36 -3.96 c1.92 0 4.28 0.84 5.68 1.72 l1.44 -2.24 c-1.88 -1.2 -4.64 -2.12 -7.08 -2.12 c-4.96 0 -8.36 2.84 -8.36 6.64 c0 3.36 1.72 5.04 7.12 7.92 c5.24 2.76 7.12 4.6 7.12 6.96 c0 2.68 -2.52 4.52 -6 4.52 c-2.84 0 -5.76 -1.4 -7.36 -2.84 z"/></g>
			</g>
		</svg>
	